{"title":"Thor(2011)MP-4[DaScubaDude]","uid":12358810,"size":1395293593,"categoryP":"video","categoryS":"movies","magnet":"?xt=urn:btih:fc88122f2df833cc802c0c359bbdd40b8c417452&amp;dn=Thor%282011%29MP-4%5BDaScubaDude%5D&amp;tr=udp%3A%2F%2Ftracker.openbittorrent.com%3A80&amp;tr=udp%3A%2F%2Fopen.demonii.com%3A1337&amp;tr=udp%3A%2F%2Ftracker.coppersurfer.tk%3A6969&amp;tr=udp%3A%2F%2Fexodus.desync.com%3A6969","seeders":0,"leechers":0,"uploader":"dascuba","files":1,"time":1441505884,"description":"Thor (2011)\nPG-13  |  115 min  |  Action, Adventure, Fantasy  |  6 May 2011 (USA)\n7.0 Your rating:   -/10   Ratings: 7.0/10 from 473,017 users   Metascore: 57/100 \nReviews: 729 user | 507 critic | 40 from Metacritic.com\nThe powerful but arrogant god Thor is cast out of Asgard to live amongst humans in Midgard (Earth), where he soon becomes one of their finest defenders.\n\nDirector: Kenneth Branagh\nWriters: Ashley Miller (screenplay) (as Ashley Edward Miller) , Zack Stentz (screenplay), 7 more credits Â»\nStars: Chris Hemsworth, Anthony Hopkins, Natalie Portman\n\n General\nComplete name              : C:UsersbillVideosWinXVideosThorTHOR_Title24.mp4\nFormat                                   : MPEG-4\nFormat profile                           : Base Media\nCodec ID                                 : isom\nFile size                                : 1.30 GiB\nDuration                                 : 1h 54mn\nOverall bit rate mode                    : Constant\nOverall bit rate                         : 1 621 Kbps\nMovie name                               : THOR\nWriting application                      : Lavf54.6.100\n\nVideo\nID                                       : 1\nFormat                                   : MPEG-4 Visual\nFormat settings, BVOP                    : No\nFormat settings, QPel                    : No\nFormat settings, GMC                     : No warppoints\nFormat settings, Matrix                  : Default (H.263)\nCodec ID                                 : 20\nDuration                                 : 1h 54mn\nBit rate mode                            : Constant\nBit rate                                 : 1 488 Kbps\nWidth                                    : 720 pixels\nHeight                                   : 404 pixels\nDisplay aspect ratio                     : 16:9\nFrame rate mode                          : Constant\nFrame rate                               : 29.970 fps\nColor space                              : YUV\nChroma subsampling                       : 4:2:0\nBit depth                                : 8 bits\nScan type                                : Progressive\nCompression mode                         : Lossy\nBits/(Pixel*Frame)                       : 0.171\nStream size                              : 1.19 GiB (92%)\nWriting library                          : Lavc54.23.100\n\nAudio\nID                                       : 2\nFormat                                   : MPEG Audio\nFormat version                           : Version 1\nFormat profile                           : Layer 3\nCodec ID                                 : 6B\nDuration                                 : 1h 54mn\nBit rate mode                            : Constant\nBit rate                                 : 128 Kbps\nChannel(s)                               : 2 channels\nSampling rate                            : 44.1 KHz\nCompression mode                         : Lossy\nStream size                              : 105 MiB (8%)\nWriting library                          : LAME3.99.5","torrent":{"xt":"urn:btih:fc88122f2df833cc802c0c359bbdd40b8c417452","amp;dn":"Thor%282011%29MP-4%5BDaScubaDude%5D","amp;tr":["udp%3A%2F%2Ftracker.openbittorrent.com%3A80","udp%3A%2F%2Fopen.demonii.com%3A1337","udp%3A%2F%2Ftracker.coppersurfer.tk%3A6969","udp%3A%2F%2Fexodus.desync.com%3A6969"],"infoHash":"fc88122f2df833cc802c0c359bbdd40b8c417452","infoHashBuffer":{"type":"Buffer","data":[252,136,18,47,45,248,51,204,128,44,12,53,155,189,212,11,140,65,116,82]},"announce":[],"urlList":[]}}